<mxfile host="app.diagrams.net" modified="2024-04-26T03:55:31.956Z" agent="Mozilla/5.0 (Windows NT 10.0; Win64; x64; rv:126.0) Gecko/20100101 Firefox/126.0" version="24.3.0" etag="9E2r9q3IHwonMeLf8xFW" type="github">
  <diagram name="第 1 页" id="wNHHYVKB3M-TUg98brvx">
    <mxGraphModel>
      <root>
        <mxCell id="0" />
        <mxCell id="1" parent="0" />
      </root>
    </mxGraphModel>
  </diagram>
</mxfile>
